<svg xmlns="http://www.w3.org/2000/svg" xmlns:xlink="http://www.w3.org/1999/xlink" width="1497px" height="440px" viewBox="0 0 1497 440"><title>Group</title><desc>Created with Sketch.</desc><g id="Page-1" stroke="none" stroke-width="1" fill="none" fill-rule="evenodd"><g id="Group" transform="translate(0.000000, -1.000000)"><path d="M335.331858,105.066372 C326.876106,113.867257 315.787611,126.504425 304.026549,142.699115 C329.787611,169.955752 344.376106,206.19469 344.376106,243.982301 C344.376106,325.353982 278.181416,391.548673 196.823009,391.548673 C115.464602,391.548673 49.2654867,325.353982 49.2654867,243.982301 C49.2654867,186.637168 82.9070796,134.823009 133.460177,110.712389 L195.358407,327.522124 L219.973451,251.504425 C220.115044,251.061947 234.035398,208.451327 259.513274,161.061947 C291.946903,100.734513 327.769912,60.8938053 363.097345,45.8274336 L344.017699,1.05309735 C315.159292,13.3539823 289.743363,35.3716814 267.920354,61.1548673 C245.40708,52.4292035 221.243363,47.8097345 196.986726,47.7876106 L208.278761,96.9247788 C218.331858,97.699115 228.176991,99.4557522 237.752212,102.221239 C222.946903,125.176991 210.606195,148.628319 200.827434,169.424779 L166.340708,48.6106195 L142.955752,55.2743363 C59.1371681,79.159292 0.592920354,156.769912 0.592920354,243.982301 C0.592920354,352.212389 88.6238938,440.221239 196.823009,440.221239 C305.017699,440.221239 393.048673,352.212389 393.048673,243.982301 C393.048673,191.725664 372.132743,141.769912 335.331858,105.066372" id="Fill-63" fill="#7EBA4A"></path><path d="M518.287611,179.159292 L472.10177,179.159292 C468.544248,179.159292 465.964602,176.283186 465.964602,173.053097 L465.964602,137.831858 C465.964602,134.60177 468.544248,131.681416 472.10177,131.681416 L615.513274,131.681416 C619.066372,131.681416 621.650442,134.60177 621.650442,137.831858 L621.650442,173.053097 C621.650442,176.283186 619.066372,179.159292 615.513274,179.159292 L569.318584,179.159292 L569.318584,351.681416 C569.318584,354.867257 566.415929,357.787611 563.185841,357.787611 L524.420354,357.787611 C521.199115,357.787611 518.287611,354.867257 518.287611,351.681416 L518.287611,179.159292" id="Fill-64" fill="#FFFFFE"></path><path d="M642.969027,137.831858 C642.969027,134.60177 645.876106,131.681416 649.110619,131.681416 L687.867257,131.681416 C691.097345,131.681416 694.004425,134.60177 694.004425,137.831858 L694.004425,351.681416 C694.004425,354.867257 691.097345,357.787611 687.867257,357.787611 L649.110619,357.787611 C645.876106,357.787611 642.969027,354.867257 642.969027,351.681416 L642.969027,137.831858" id="Fill-65" fill="#FFFFFE"></path><path d="M762.216814,133.628319 C762.535398,130.707965 765.451327,128.451327 768.035398,128.451327 L773.20354,128.451327 C774.814159,128.451327 777.721239,129.778761 778.690265,131.681416 L853.628319,271.238938 L854.274336,271.238938 L929.207965,131.681416 C930.176991,129.778761 933.084071,128.451327 934.699115,128.451327 L939.867257,128.451327 C942.451327,128.451327 945.358407,130.707965 945.681416,133.628319 L982.168142,350.707965 C982.831858,354.867257 979.911504,357.787611 976.039823,357.787611 L937.929204,357.787611 C935.022124,357.787611 932.115044,355.221239 931.792035,352.610619 L917.256637,252.831858 L916.610619,252.831858 L862.349558,357.477876 C861.380531,359.424779 858.473451,361.017699 856.858407,361.017699 L851.044248,361.017699 C849.106195,361.017699 846.522124,359.424779 845.553097,357.477876 L790.964602,252.831858 L790.318584,252.831858 L776.106195,352.610619 C775.787611,355.221239 773.20354,357.787611 769.969027,357.787611 L731.858407,357.787611 C727.982301,357.787611 725.075221,354.867257 725.712389,350.707965 L762.216814,133.628319" id="Fill-66" fill="#FFFFFE"></path><path d="M1372.25664,248.938053 L1300.84071,141.061947 C1298.27434,136.858407 1300.84071,131.681416 1306.0177,131.681416 L1348.00885,131.681416 C1350.61947,131.681416 1352.21239,133.318584 1353.18584,134.60177 L1398.09735,200.79646 L1442.9646,134.60177 C1443.93805,133.318584 1445.26549,131.681416 1448.14159,131.681416 L1490.13274,131.681416 C1495.30973,131.681416 1497.87611,136.858407 1495.30973,141.061947 L1422.9646,248.628319 L1422.9646,351.681416 C1422.9646,354.867257 1420.04425,357.787611 1416.81416,357.787611 L1378.40708,357.787611 C1374.82301,357.787611 1372.25664,354.867257 1372.25664,351.681416 L1372.25664,248.938053" id="Fill-67" fill="#FFFFFE"></path><path d="M1114.33628,340.088496 C1114.33628,329.026549 1117.78761,318.761062 1123.67257,310.309735 L1065,310.309735 L1065,266.725664 L1138.62832,266.725664 C1141.85841,266.725664 1144.77876,264.115044 1144.77876,260.575221 L1144.77876,225.353982 C1144.77876,222.123894 1141.85841,219.247788 1138.62832,219.247788 L1065,219.247788 L1065,179.159292 L1154.46903,179.159292 C1158.00885,179.159292 1160.61947,176.283186 1160.61947,173.053097 L1160.61947,137.831858 C1160.61947,134.60177 1158.00885,131.681416 1154.46903,131.681416 L1020.75221,131.681416 C1017.21239,131.681416 1014.60177,134.60177 1014.60177,137.831858 L1014.60177,351.681416 C1014.60177,354.867257 1017.21239,357.787611 1020.75221,357.787611 L1117.47788,357.787611 C1115.44248,352.256637 1114.33628,346.327434 1114.33628,340.088496" id="Fill-68" fill="#FFFFFE"></path><path d="M1326.41593,310.309735 L1249.55752,310.309735 L1249.55752,137.831858 C1249.55752,134.60177 1246.63717,131.681416 1243.40708,131.681416 L1204.95575,131.681416 C1201.41593,131.681416 1198.80531,134.60177 1198.80531,137.831858 L1198.80531,299.070796 C1210.97345,308.628319 1218.80531,323.451327 1218.80531,340.088496 C1218.80531,346.327434 1217.65487,352.256637 1215.66372,357.787611 L1326.41593,357.787611 C1329.95575,357.787611 1332.56637,354.867257 1332.56637,351.681416 L1332.56637,316.460177 C1332.56637,313.230088 1329.95575,310.309735 1326.41593,310.309735" id="Fill-69" fill="#FFFFFE"></path><path d="M1185.57522,335.575221 C1185.57522,348.451327 1175.17699,358.849558 1162.34513,358.849558 C1149.46903,358.849558 1139.0708,348.451327 1139.0708,335.575221 C1139.0708,322.743363 1149.46903,312.300885 1162.34513,312.300885 C1175.17699,312.300885 1185.57522,322.743363 1185.57522,335.575221" id="Fill-70" fill="#FFFFFE"></path></g></g></svg>